<?xml version="1.0" encoding="UTF-8"?> <!-- Creator: CorelDRAW 2017 --> <svg xmlns="http://www.w3.org/2000/svg" xmlns:xlink="http://www.w3.org/1999/xlink" xml:space="preserve" width="95mm" height="25mm" style="shape-rendering:geometricPrecision; text-rendering:geometricPrecision; image-rendering:optimizeQuality; fill-rule:evenodd; clip-rule:evenodd" viewBox="0 0 9500 2500"> <defs> <style type="text/css"> <![CDATA[ .fil1 {fill:#00985F} .fil0 {fill:#00985F;fill-rule:nonzero} ]]> </style> </defs> <g id="Слой_x0020_1"> <metadata id="CorelCorpID_0Corel-Layer"></metadata> <path class="fil0" d="M3536.81 836.45c0,50.14 -9.86,95.55 -29.59,136.65 -16.44,33.49 -39.04,62.87 -67.81,87.94 -28.76,25.07 -62.67,43.97 -101.71,57.13 -39.04,13.15 -80.34,19.72 -123.9,19.72 -27.13,0 -50.54,-1.85 -70.27,-5.55 -19.72,-3.69 -41.51,-10.48 -65.34,-20.34 -68.22,-27.94 -115.48,-67.6 -141.78,-119.38 -20.55,-41.1 -30.82,-97.61 -30.82,-169.93l0 -561.38 542.45 0 0 172.61 -359.99 0 0 373.97c0,34.32 2.88,60.21 8.63,77.47 9.04,27.94 28.36,49.52 57.95,65.13 18.9,9.87 41.08,14.8 66.56,14.8 37.81,0 69.46,-10.69 94.93,-31.85 10.69,-9.04 19.73,-20.75 27.13,-34.93 7.4,-14.39 11.09,-31.44 11.09,-50.96 0,-20.55 -2.87,-36.78 -8.63,-49.11 -5.75,-12.12 -14.59,-23.63 -26.5,-34.32 -11.92,-10.68 -26.1,-18.9 -42.54,-25.07 -16.44,-6.16 -33.29,-9.24 -50.55,-9.24 -27.94,0 -57.52,7.4 -88.75,22.19l0 -161.51c36.98,-13.97 75.19,-20.96 114.64,-20.96 65.76,0 122.47,15.21 170.14,45.62 41.92,26.92 72.33,61.85 91.24,104.38 15.61,36.17 23.42,75.21 23.42,116.92z"></path> <path id="1" class="fil0" d="M4177.9 1124.33l-157.81 0 0 -368.63c0,-11.51 -0.41,-18.49 -1.24,-20.96 -0.82,0 -1.64,-0.41 -2.46,-1.23 -1.65,1.64 -2.88,3.7 -3.7,6.16l-6.17 9.86 -12.32 23.22 -152.88 275.35c-18.08,31.23 -30.41,50.96 -36.98,58.97 -18.08,20.55 -40.27,30.82 -66.57,30.82 -36.99,0 -62.06,-16.44 -75.21,-49.31 -8.22,-20.35 -12.33,-48.7 -12.33,-84.87l0 -478.56 157.81 0 0 373.56 0 16.03 3.69 -1.23 6.16 -9.87 12.33 -22.19 156.58 -283.56c18.9,-34.52 30.82,-54.66 35.75,-60.41 16.44,-18.08 38.63,-27.12 66.58,-27.12 38.63,0 64.52,15.61 77.67,46.85 7.4,17.26 11.1,42.74 11.1,76.43l0 490.69z"></path> <path id="2" class="fil0" d="M4714.19 952.96c0,18.9 -2.05,36.37 -6.16,52.4 -4.11,16.02 -11.51,31.44 -22.2,46.23 -21.37,29.59 -50.95,50.14 -88.76,61.64 -24.66,7.4 -55.48,11.1 -92.47,11.1l-225.61 0 0 -152.88 184.93 0 14.79 0c25.48,0 42.74,-2.05 51.78,-6.16 17.26,-7.4 25.89,-22.19 25.89,-44.39 0,-22.19 -9.45,-36.98 -28.35,-44.38 -10.69,-4.11 -28.36,-6.16 -53.02,-6.16l-145.47 0 0 -110.96 122.05 0c24.65,0 42.33,-1.65 53.01,-4.93 18.9,-5.76 28.36,-17.68 28.36,-35.76 0,-18.08 -8.02,-29.38 -24.04,-33.9 -16.03,-4.52 -35.96,-6.78 -59.8,-6.78l-168.89 0 0 -152.88 233 0c32.06,0 57.12,2.47 75.21,7.4 31.23,8.22 56.09,24.45 74.59,48.7 18.49,24.24 27.74,52.8 27.74,85.68 0,22.19 -3.7,41.51 -11.1,57.95 -7.4,16.44 -17.47,31.23 -30.21,44.38 -12.74,13.15 -29.38,24.25 -49.93,33.29 25.48,4.93 46.44,14.79 62.88,29.59 13.15,11.5 25.07,28.35 35.75,50.55 10.69,22.19 16.03,45.61 16.03,70.27z"></path> <polygon id="3" class="fil0" points="5335.55,1124.33 5177.74,1124.33 5177.74,880.22 4973.09,880.22 4973.09,1124.33 4815.28,1124.33 4815.28,525.15 4973.09,525.15 4973.09,748.3 5177.74,748.3 5177.74,525.15 5335.55,525.15 "></polygon> <path id="4" class="fil0" d="M6070.33 932c-28.76,64.11 -70.89,114.45 -126.37,151.03 -55.48,36.57 -117.74,54.86 -186.78,54.86 -95.33,0 -173.41,-30.82 -234.23,-92.26 -60.83,-61.64 -91.24,-137.88 -91.24,-228.9 0,-83.63 28.36,-154.52 85.07,-212.88 60.82,-62.26 139.73,-93.49 236.7,-93.49 69.87,0 130.89,17.67 183.09,52.8 52.19,35.35 91.44,83.22 117.74,143.84l-352.61 213.9 -53 -89.58 223.14 -142.4c-16.44,-17.26 -35.75,-29.18 -58.36,-36.17 -22.39,-6.98 -42.74,-10.48 -60.61,-10.48 -36.17,0 -67.6,9.05 -94.51,27.13 -21.37,14.59 -38.22,34.11 -50.35,58.35 -12.32,24.04 -18.49,53.43 -18.49,87.74 0,27.95 6.99,55.69 20.96,83.63 13.97,27.74 35.14,51.17 63.29,69.87 28.34,18.9 61.84,28.35 100.47,28.35 42.53,0 81.37,-13.76 116.3,-41.3 34.93,-27.53 60.41,-63.49 76.85,-107.88l102.94 83.84z"></path> <path id="5" class="fil0" d="M6552.38 1124.33l-88.76 0c-57.54,0 -106.03,-7.4 -145.47,-22.19 -56.72,-21.37 -100.69,-58.77 -131.92,-112.19 -13.15,-22.2 -23.02,-48.09 -29.59,-77.68 -6.58,-29.58 -9.86,-58.76 -9.86,-87.53 0,-31.23 3.08,-60.62 9.24,-88.15 6.17,-27.54 16.24,-53.22 30.21,-77.06 31.23,-53.42 75.62,-90.82 133.15,-112.19 39.44,-14.79 88.35,-22.19 146.7,-22.19l86.3 0 0 152.88 -86.3 0c-34.52,0 -60.41,3.29 -77.67,9.86 -27.12,9.86 -47.88,27.95 -62.26,54.25 -14.37,26.3 -21.56,53.83 -21.56,82.6 0,29.59 6.57,56.3 19.71,80.14 16.44,27.94 37.81,46.85 64.11,56.71 18.08,6.58 43.97,9.86 77.67,9.86l86.3 0 0 152.88z"></path> <path id="6" class="fil0" d="M7173.75 1124.33l-91.24 0c-101.09,0 -189.03,-25.89 -263.82,-77.67 -51.79,-36.17 -94.11,-81.78 -126.99,-136.85 -38.63,-65.75 -57.95,-138.08 -57.95,-216.99 0,-36.98 4.94,-74.38 14.8,-112.19 9.86,-37.81 24.24,-72.74 43.15,-104.79 32.88,-55.07 75.2,-100.69 126.99,-136.85 74.79,-51.79 162.73,-77.68 263.82,-77.68l91.24 0 0 172.61 -91.24 0c-75.61,0 -138.89,24.65 -189.85,73.97 -50.96,49.32 -76.44,110.96 -76.44,184.93 0,73.97 25.48,135.62 76.44,184.93 50.96,49.32 114.24,73.98 189.85,73.98l91.24 0 0 172.6z"></path> <path id="7" class="fil0" d="M7871.54 824.12c0,87.74 -30.41,161.92 -91.23,222.74 -60.82,60.62 -135.21,91.03 -223.14,91.03 -87.95,0 -162.33,-30.41 -223.15,-91.03 -60.83,-60.82 -91.24,-135 -91.24,-222.74 0,-87.74 30.41,-161.91 91.24,-222.74 60.82,-60.61 135.2,-91.02 223.15,-91.02 87.93,0 162.32,30.41 223.14,91.02 60.82,60.83 91.23,135 91.23,222.74zm-157.81 0c0,-45 -15.2,-83.01 -45.61,-114.24 -30.42,-31.03 -67.4,-46.65 -110.95,-46.65 -44.39,0 -81.58,15.41 -111.58,46.03 -30,30.82 -45,69.04 -45,114.86 0,45 15.21,83.02 45.62,114.25 30.41,31.03 67.39,46.64 110.96,46.64 44.37,0 81.56,-15.41 111.56,-46.02 30,-30.82 45,-69.04 45,-114.87z"></path> <path id="8" class="fil0" d="M8781.39 823.51c0,77.26 -25.07,145.07 -75.2,203.42 -55.89,64.93 -126.58,97.4 -212.06,97.4l0 -152.88c40.28,-4.93 71.92,-21.98 94.93,-51.16 23.02,-29.18 34.52,-61.44 34.52,-96.78 0,-41.1 -13.15,-75.21 -39.45,-102.33 -31.23,-32.06 -77.67,-48.08 -139.31,-48.08l0 717.53 -157.81 0 0 -266.3c-105.2,0 -189.03,-30.82 -251.5,-92.26 -56.71,-55.89 -85.07,-125.96 -85.07,-210.41 0,-78.7 25.89,-147.74 77.67,-206.71 55.89,-63.09 125.76,-94.73 209.58,-94.73l0 153.7c-40.26,4.93 -71.9,21.98 -94.92,50.96 -23.01,29.18 -34.52,61.23 -34.52,96.57 0,45 15.82,81.37 47.47,108.91 31.64,27.33 75.4,41.09 131.29,41.09l0 -710.14 157.81 0 0 258.91 17.26 0c92.05,0 168.29,29.38 228.7,88.15 60.41,58.77 90.61,130.48 90.61,215.14z"></path> <polygon id="9" class="fil0" points="9328.79,678.03 9156.18,678.03 9156.18,1124.33 8998.37,1124.33 8998.37,678.03 8825.78,678.03 8825.78,525.15 9328.79,525.15 "></polygon> <path class="fil0" d="M5020.39 1649.34l44.39 8.07c-8.93,30.38 -22.19,53.13 -39.68,68.29 -17.49,15.1 -37.78,22.68 -60.83,22.68 -25.8,0 -46.22,-9.41 -61.32,-28.24 -15.11,-18.9 -22.69,-47.14 -22.69,-84.86 0,-32.35 5.51,-60.78 16.51,-85.41 10.94,-24.64 25.01,-42.98 42,-54.97 17.06,-11.98 35.46,-17.97 55.27,-17.97 22.38,0 40.96,7.33 55.88,22.01 14.86,14.73 23.6,35.76 26.23,63.09l-42.19 5.14c-2.5,-15.96 -7.21,-27.21 -14,-33.75 -6.84,-6.6 -15.71,-9.9 -26.65,-9.9 -11.13,0 -21.89,3.97 -32.16,11.98 -10.33,8.01 -19.08,21.4 -26.35,40.23 -7.28,18.77 -10.88,39.43 -10.88,61.99 0,21.16 4.21,37.36 12.59,48.61 8.38,11.31 18.52,16.93 30.51,16.93 11.37,0 21.95,-4.46 31.61,-13.33 9.72,-8.92 16.99,-22.43 21.76,-40.59z"></path> <polygon id="1" class="fil0" points="5073.89,1743.98 5120.11,1481.33 5161.44,1481.33 5132.76,1644.26 5249.41,1481.33 5291.23,1481.33 5245.07,1743.98 5203.38,1743.98 5232.6,1579.15 5115.03,1743.98 "></polygon> <path id="2" class="fil0" d="M5453.86 1649.34l44.39 8.07c-8.93,30.38 -22.19,53.13 -39.68,68.29 -17.49,15.1 -37.78,22.68 -60.83,22.68 -25.8,0 -46.22,-9.41 -61.32,-28.24 -15.11,-18.9 -22.69,-47.14 -22.69,-84.86 0,-32.35 5.51,-60.78 16.51,-85.41 10.94,-24.64 25.01,-42.98 42,-54.97 17.06,-11.98 35.46,-17.97 55.27,-17.97 22.38,0 40.96,7.33 55.88,22.01 14.86,14.73 23.6,35.76 26.23,63.09l-42.19 5.14c-2.5,-15.96 -7.21,-27.21 -14,-33.75 -6.84,-6.6 -15.71,-9.9 -26.65,-9.9 -11.13,0 -21.89,3.97 -32.16,11.98 -10.33,8.01 -19.08,21.4 -26.35,40.23 -7.28,18.77 -10.88,39.43 -10.88,61.99 0,21.16 4.21,37.36 12.59,48.61 8.38,11.31 18.52,16.93 30.51,16.93 11.37,0 21.95,-4.46 31.61,-13.33 9.72,-8.92 16.99,-22.43 21.76,-40.59z"></path> <polygon id="3" class="fil0" points="5608.11,1743.98 5563.85,1743.98 5601.51,1525.35 5536.7,1525.35 5544.22,1481.33 5715.35,1481.33 5707.83,1525.35 5645.77,1525.35 "></polygon> <polygon id="4" class="fil0" points="5699.21,1743.98 5744.2,1481.33 5903.9,1481.33 5896.38,1525.35 5780.95,1525.35 5770.8,1584.78 5882.25,1584.78 5874.73,1628.8 5763.22,1628.8 5751.05,1699.96 5874.55,1699.96 5867.21,1743.98 "></polygon> <polygon id="5" class="fil0" points="6024.27,1743.98 5981.72,1743.98 5974.32,1524.49 5940.09,1743.98 5900.16,1743.98 5945.1,1481.33 6008.32,1481.33 6014.98,1665.36 6087.18,1481.33 6151.38,1481.33 6107.18,1743.98 6066.7,1743.98 6108.34,1526.14 "></polygon> <path id="6" class="fil0" d="M6143.44 1743.98l46.22 -262.65 43.96 0 -17.37 99.41 34.97 0c32.28,0 54.54,6.05 66.77,18.1 12.28,12.04 18.4,31.06 18.4,56.98 0,27.33 -7.7,48.91 -23.11,64.62 -15.41,15.71 -36.93,23.54 -64.5,23.54l-105.34 0zm65.17 -119.22l-13.33 76.3 43.9 0c14.06,0 24.33,-1.28 30.81,-3.79 6.42,-2.51 11.74,-7.15 15.84,-14 4.09,-6.91 6.17,-14.73 6.17,-23.6 0,-10.94 -3.05,-19.56 -9.17,-25.68 -6.05,-6.17 -19.13,-9.23 -39.25,-9.23l-34.97 0zm149.42 119.22l46.71 -262.65 44.39 0 -46.77 262.65 -44.33 0z"></path> <path id="7" class="fil0" d="M6671.25 1686.02l-85.41 0 -26.04 57.96 -45.49 0 121.72 -262.65 49.22 0 34.73 262.65 -41.7 0 -7.03 -57.96zm-5.26 -43.65l-12.84 -106.02 -47.68 106.02 60.52 0z"></path> <path id="8" class="fil0" d="M6748.28 1743.98l44.94 -262.65 73.73 0c19.69,0 33.75,1.28 42.07,3.79 13.02,3.79 23.04,10.88 30.08,21.28 7.03,10.39 10.57,23.23 10.57,38.51 0,15.41 -3.42,28.37 -10.27,38.77 -6.85,10.39 -17.12,18.21 -30.81,23.59 10.64,3.61 19.19,10.09 25.61,19.39 6.42,9.29 9.6,20.17 9.6,32.58 0,16.94 -3.85,32.28 -11.55,46.04 -7.71,13.76 -17.67,23.6 -30.02,29.65 -12.35,6.05 -29.84,9.05 -52.52,9.05l-101.43 0zm71.11 -156.64l33.62 0c14.68,0 25.25,-1.16 31.67,-3.54 6.36,-2.39 11.44,-6.54 15.1,-12.35 3.67,-5.87 5.51,-12.54 5.51,-19.99 0,-6.12 -1.35,-11.25 -4.1,-15.47 -2.75,-4.22 -6.18,-7.09 -10.33,-8.5 -4.16,-1.41 -13.09,-2.14 -26.9,-2.14l-34 0 -10.57 61.99zm-19.63 114.45l42.49 0c16.69,0 28.13,-1.22 34.3,-3.6 6.18,-2.39 11.37,-6.73 15.53,-13.15 4.16,-6.36 6.24,-13.57 6.24,-21.58 0,-9.41 -2.76,-16.81 -8.2,-22.19 -5.5,-5.38 -14.06,-8.07 -25.86,-8.07l-52.76 0 -11.74 68.59z"></path> <polygon id="9" class="fil0" points="7057.7,1743.98 7013.44,1743.98 7051.1,1525.35 6986.29,1525.35 6993.81,1481.33 7164.94,1481.33 7157.42,1525.35 7095.36,1525.35 "></polygon> <path id="10" class="fil0" d="M7162 1640.84c0,-22.68 3.79,-45.98 11.43,-69.94 9.73,-30.82 24.03,-54.17 42.98,-70.07 19.02,-15.95 40.97,-23.9 65.91,-23.9 25.86,0 47.2,9.84 64.01,29.53 16.76,19.68 25.13,46.52 25.13,80.52 0,30.75 -5.99,59.18 -17.97,85.16 -11.99,26.05 -26.9,45.24 -44.7,57.66 -17.79,12.41 -37.35,18.58 -58.69,18.58 -25.55,0 -45.91,-8.92 -61.08,-26.84 -18.03,-21.09 -27.02,-47.99 -27.02,-80.7zm44.39 -1.1c0,19.32 4.71,34.73 14.12,46.28 9.48,11.49 20.97,17.24 34.48,17.24 10.89,0 21.71,-4.28 32.41,-12.9 10.63,-8.56 19.93,-22.68 27.81,-42.31 7.89,-19.62 11.87,-39.55 11.87,-59.79 0,-21.28 -4.9,-37.97 -14.62,-50.13 -8.56,-10.7 -19.74,-16.08 -33.62,-16.08 -11.13,0 -22.2,4.34 -33.14,13.08 -10.88,8.68 -20.18,22.68 -27.82,41.94 -7.64,19.26 -11.49,40.17 -11.49,62.67z"></path> <polygon id="11" class="fil0" points="7507.37,1743.98 7464.82,1743.98 7457.42,1524.49 7423.19,1743.98 7383.26,1743.98 7428.2,1481.33 7491.42,1481.33 7498.08,1665.36 7570.28,1481.33 7634.48,1481.33 7590.28,1743.98 7549.8,1743.98 7591.44,1526.14 "></polygon> <path id="12" class="fil0" d="M7773.94 1686.02l-85.41 0 -26.04 57.96 -45.49 0 121.72 -262.65 49.22 0 34.73 262.65 -41.7 0 -7.03 -57.96zm-5.26 -43.65l-12.84 -106.02 -47.68 106.02 60.52 0z"></path> <polygon id="13" class="fil0" points="7943.29,1743.98 7899.03,1743.98 7936.69,1525.35 7871.88,1525.35 7879.4,1481.33 8050.53,1481.33 8043.01,1525.35 7980.95,1525.35 "></polygon> <polygon id="14" class="fil0" points="8026.32,1743.98 8072.54,1481.33 8113.87,1481.33 8085.19,1644.26 8201.84,1481.33 8243.66,1481.33 8197.5,1743.98 8155.81,1743.98 8185.03,1579.15 8067.46,1743.98 "></polygon> <path id="15" class="fil0" d="M8319.35 1631l7.71 -45.43c3.91,0.92 9.04,1.41 15.4,1.41 10.4,0 19.08,-3.43 26.11,-10.34 7.03,-6.84 10.58,-15.46 10.58,-25.92 0,-8.56 -2.75,-15.53 -8.32,-20.79 -5.56,-5.25 -12.41,-7.88 -20.66,-7.88 -19.32,0 -31.67,10.39 -37.05,31.18l-42.19 -12.17c6.42,-22.93 16.75,-39.37 30.94,-49.28 14.24,-9.9 30.32,-14.85 48.36,-14.85 21.09,0 38.82,6.6 53.19,19.81 14.37,13.2 21.58,29.71 21.58,49.52 0,32.46 -15.28,54.41 -45.85,65.78 21.52,12.54 32.28,31.37 32.28,56.5 0,21.88 -8.01,40.65 -24.09,56.36 -16.02,15.66 -37.6,23.48 -64.69,23.48 -47.13,0 -74.4,-21.52 -81.8,-64.62l42.55 -16.08c4.53,24.94 17.49,37.42 38.89,37.42 12.84,0 23.41,-3.73 31.67,-11.25 8.25,-7.46 12.35,-17.37 12.35,-29.59 0,-10.21 -3.43,-18.41 -10.34,-24.64 -6.84,-6.24 -15.77,-9.36 -26.77,-9.36 -3,0 -6.24,0.25 -9.85,0.74z"></path> <path id="16" class="fil0" d="M8584.45 1686.02l-85.41 0 -26.04 57.96 -45.49 0 121.72 -262.65 49.22 0 34.73 262.65 -41.7 0 -7.03 -57.96zm-5.26 -43.65l-12.84 -106.02 -47.68 106.02 60.52 0z"></path> <polygon id="17" class="fil0" points="8652.31,1743.98 8698.17,1481.33 8742.49,1481.33 8704.28,1699.96 8787.31,1699.96 8825.82,1481.33 8870.15,1481.33 8831.63,1699.96 8850.64,1699.96 8829.92,1816.61 8793.91,1816.61 8806.81,1743.98 "></polygon> <polygon id="18" class="fil0" points="8872.48,1743.98 8918.7,1481.33 8960.03,1481.33 8931.35,1644.26 9048,1481.33 9089.82,1481.33 9043.66,1743.98 9001.97,1743.98 9031.19,1579.15 8913.62,1743.98 "></polygon> <polygon id="19" class="fil0" points="9088.85,1743.98 9135.07,1481.33 9176.4,1481.33 9147.72,1644.26 9264.37,1481.33 9306.19,1481.33 9260.03,1743.98 9218.34,1743.98 9247.56,1579.15 9129.99,1743.98 "></polygon> <g id="_1876598823344"> <path class="fil0" d="M1314.33 1282.18c0,89.8 -17.66,171.13 -52.99,244.73 -29.44,59.98 -69.92,112.61 -121.45,157.5 -51.51,44.9 -112.24,78.76 -182.16,102.31 -69.92,23.55 -143.89,35.33 -221.9,35.33 -48.58,0 -90.53,-3.32 -125.86,-9.94 -35.33,-6.62 -74.34,-18.77 -117.03,-36.43 -122.18,-50.05 -206.82,-121.08 -253.92,-213.81 -36.8,-73.61 -55.2,-174.81 -55.2,-304.35l0 -1005.39 971.53 0 0 309.13 -644.74 0 0 669.77c0,61.46 5.15,107.83 15.45,138.74 16.19,50.05 50.79,88.69 103.78,116.66 33.86,17.66 73.6,26.49 119.23,26.49 67.72,0 124.39,-19.14 170.02,-57.04 19.14,-16.19 35.33,-37.17 48.58,-62.56 13.25,-25.76 19.87,-56.3 19.87,-91.27 0,-36.8 -5.15,-65.87 -15.45,-87.95 -10.31,-21.71 -26.13,-42.32 -47.48,-61.45 -21.34,-19.14 -46.73,-33.86 -76.17,-44.9 -29.45,-11.04 -59.62,-16.56 -90.53,-16.56 -50.05,0 -103.05,13.24 -158.98,39.74l0 -289.25c66.24,-25.02 134.69,-37.54 205.35,-37.54 117.76,0 219.33,27.23 304.7,81.7 75.08,48.21 129.54,110.77 163.4,186.95 27.97,64.77 41.95,134.69 41.95,209.39zm1148.18 515.58l-163.39 0c-181.06,0 -338.57,-46.37 -472.52,-139.11 -92.74,-64.77 -168.55,-146.46 -227.43,-245.09 -69.18,-117.76 -103.78,-247.3 -103.78,-388.61 0,-66.24 8.84,-133.22 26.5,-200.94 17.66,-67.71 43.42,-130.27 77.28,-187.68 58.88,-98.63 134.69,-180.32 227.43,-245.09 133.95,-92.74 291.46,-139.11 472.52,-139.11l163.39 0 0 309.13 -163.39 0c-135.43,0 -248.77,44.16 -340.04,132.48 -91.27,88.32 -136.9,198.72 -136.9,331.21 0,132.48 45.63,242.88 136.9,331.2 91.27,88.32 204.61,132.49 340.04,132.49l163.39 0 0 309.12z"></path> <g> <path class="fil1" d="M2388.87 1421.17c114.78,0 190.44,2.98 299.07,-40.23 97.34,-38.71 76.43,-86.27 76.43,-167.87 -23.76,12.57 -37.15,22.16 -65.88,33.65 -155.01,62.03 -438.93,61.52 -581.06,-33.65 0,33.12 -8.37,86.73 3.5,114.12 26.73,61.66 197.77,93.98 267.94,93.98z"></path> <path class="fil1" d="M2385.83 1228.53c114.77,0 190.43,2.97 299.07,-40.23 97.33,-38.72 76.42,-86.27 76.42,-167.88 -23.75,12.57 -37.14,22.16 -65.87,33.66 -155.01,62.02 -438.94,61.52 -581.07,-33.66 0,33.12 -8.36,86.74 3.51,114.12 26.72,61.66 197.77,93.99 267.94,93.99z"></path> <path class="fil1" d="M2115.86 728.25c0,71.28 117.58,105.1 177.11,112.43 120.56,14.83 244.33,19.08 360.73,-17.95 253.38,-80.58 34.78,-238.87 -316.98,-199.35 -55.87,6.28 -220.86,37.18 -220.86,104.87z"></path> <path class="fil1" d="M2387.31 1040.41c114.77,0 190.43,2.97 299.07,-40.23 97.33,-38.72 76.42,-86.27 76.42,-167.88 -23.75,12.57 -37.14,22.16 -65.87,33.66 -155.01,62.02 -438.94,61.52 -581.07,-33.66 0,33.12 -8.36,86.74 3.51,114.12 26.72,61.66 197.77,93.99 267.94,93.99z"></path> </g> </g> </g> </svg> 