<?xml version="1.0" encoding="UTF-8"?> <!-- Creator: CorelDRAW 2017 --> <svg xmlns="http://www.w3.org/2000/svg" xmlns:xlink="http://www.w3.org/1999/xlink" xml:space="preserve" width="150mm" height="150mm" style="shape-rendering:geometricPrecision; text-rendering:geometricPrecision; image-rendering:optimizeQuality; fill-rule:evenodd; clip-rule:evenodd" viewBox="0 0 15000 15000"> <defs> <style type="text/css"> <![CDATA[ .fil0 {fill:#00995E} ]]> </style> </defs> <g id="Слой_x0020_1"> <metadata id="CorelCorpID_0Corel-Layer"></metadata> <g id="_1876679320848"> <g> <path class="fil0" d="M6673.87 2420.15c-3941.6,852.25 -5406.41,5592.83 -2583.34,8389.25 1020.9,1012.04 2103.96,1464.78 3515.49,1464.78 1411.53,0 2494.59,-452.76 3515.5,-1464.78 1571.32,-1553.56 1908.65,-3852.85 852.24,-5850.29 -807.85,-1544.68 -2361.42,-2512.34 -4145.79,-2583.35 -434.99,-17.77 -958.77,0 -1154.07,44.39l-0.03 0zm2796.42 2938.47c284.08,159.8 381.72,177.56 612.56,97.66 328.47,-115.4 346.21,-62.13 79.89,230.81l-204.18 221.93 292.96 -44.39 284.09 -44.39 -213.07 230.81c-159.8,168.68 -248.58,399.49 -319.59,852.25 -186.42,1251.74 -932.15,2272.64 -2024.07,2778.67 -443.87,213.07 -612.55,239.7 -1393.76,239.7 -727.96,0 -958.77,-35.51 -1287.25,-195.31 -390.6,-186.41 -390.6,-186.41 -133.17,-204.18 328.48,-8.88 852.25,-195.3 1162.96,-399.49l239.69 -159.79 -328.47 -106.53c-319.59,-115.4 -763.47,-452.76 -763.47,-585.9 0,-35.51 106.52,-88.78 248.57,-124.29l239.7 -62.13 -328.48 -168.68c-337.35,-177.56 -541.51,-408.37 -648.06,-763.47 -53.27,-186.42 -35.51,-195.3 213.07,-150.91 328.47,71.01 337.36,26.62 62.13,-275.2 -257.46,-275.2 -355.1,-648.07 -275.2,-1020.9l62.13 -275.2 355.1 328.47c443.88,399.49 1304.99,798.97 1873.15,887.76 390.61,53.27 426.11,44.39 417.26,-106.53 -44.39,-417.25 17.76,-665.8 239.69,-923.26 399.49,-488.27 967.65,-577.05 1535.82,-257.46l0 -0.05z"></path> </g> </g> </g> </svg> 