<?xml version="1.0" encoding="UTF-8"?> <!-- Creator: CorelDRAW 2017 --> <svg xmlns="http://www.w3.org/2000/svg" xmlns:xlink="http://www.w3.org/1999/xlink" xml:space="preserve" width="210mm" height="297mm" style="shape-rendering:geometricPrecision; text-rendering:geometricPrecision; image-rendering:optimizeQuality; fill-rule:evenodd; clip-rule:evenodd" viewBox="0 0 21000 29700"> <defs> <style type="text/css"> <![CDATA[ .fil0 {fill:#00995E} ]]> </style> </defs> <g id="Слой_x0020_1"> <metadata id="CorelCorpID_0Corel-Layer"></metadata> <g id="_2157846494304"> <path class="fil0" d="M10304.76 18498.02c-555.37,342.77 -1363.95,163.01 -1696.46,-376.04l-2404.39 -3896.62c-337.95,-547.84 -167.62,-1268.32 379.81,-1606.06l-164.9 -267.01 164.9 267.01 2103.06 -1298.45 -1851.73 -3000.15 -2101.8 1297.41 0 0c-2061.83,1272.51 -1994.66,4604.75 163.64,8103.15 987.7,1601.04 2231.33,2874.38 3501.33,3585.66 747.89,418.73 1484.9,629.03 2171.48,628.82 576.51,0 1117.44,-148.16 1599.58,-445.72l2022.91 -1247.81 -1851.73 -3000.99 -2035.7 1256.8zm1534.92 2457.75c-1094.01,675.28 -2308.55,265.97 -3134.49,-196.7 -1178.55,-659.79 -2341.19,-1855.71 -3273.86,-3367.4 -1964.11,-3184.09 -2115.4,-6161.01 -368.09,-7239.53l-164.9 -267.01 164.9 267.01 1567.35 -967.61 1192.36 1931.88 -1569.03 968.66 0 0c-842.06,519.59 -1104.05,1627.62 -584.25,2469.89l2404.18 3896.41c513.94,833.48 1710.48,1104.47 2560.29,580.69l1501.85 -927.02 1192.36 1932.09 -1488.67 918.64z"></path> <path class="fil0" d="M12469.13 12844.67c465.6,714.83 577.56,1590.58 306.98,2402.92l595.76 198.38c331.26,-994.82 193.98,-2067.9 -376.46,-2943.65 -587.81,-905.26 -1584.09,-1483.65 -2665.13,-1547.68l-37.04 626.73c895.85,52.94 1688.94,513.31 2175.89,1263.3z"></path> <path class="fil0" d="M10755.09 8877.74l-71.78 623.59c1458.33,167.62 2752.81,967.82 3551.76,2194.92 773.63,1189.64 992.94,2654.45 601.2,4019.45l603.5 173.06c441.75,-1539.73 194.61,-3192.67 -678.42,-4534.86 -901.48,-1384.66 -2361.49,-2287.2 -4006.26,-2476.16z"></path> <path class="fil0" d="M16325.78 10335.86c-1167.04,-1794.82 -3052.68,-2993.45 -5173.31,-3288.3l-86.42 621.92c1940.25,269.74 3665.59,1366.46 4733.44,3008.73 1046.3,1607.32 1360.18,3592.35 861.31,5446.6l606.22 163.01c545.13,-2026.05 201.94,-4195.65 -941.24,-5951.96z"></path> </g> </g> </svg> 