<?xml version="1.0" encoding="UTF-8"?> <!-- Creator: CorelDRAW 2017 --> <svg xmlns="http://www.w3.org/2000/svg" xmlns:xlink="http://www.w3.org/1999/xlink" xml:space="preserve" width="150mm" height="150mm" style="shape-rendering:geometricPrecision; text-rendering:geometricPrecision; image-rendering:optimizeQuality; fill-rule:evenodd; clip-rule:evenodd" viewBox="0 0 15000 15000"> <defs> <style type="text/css"> <![CDATA[ .fil0 {fill:#00995E} ]]> </style> </defs> <g id="Слой_x0020_1"> <metadata id="CorelCorpID_0Corel-Layer"></metadata> <g id="_1876679314192"> <path class="fil0" d="M6855.41 2352.6c-1443.64,188.81 -2741.35,1025.5 -3546.83,2283.52 -322.97,506.78 -564.23,1099.03 -692.64,1701.21 -136.19,643.91 -136.19,1460.73 1.95,2134.46 256.82,1267.95 1033.11,2442.5 2097.36,3167.9 426.08,292.15 1108.99,618.08 1293.82,618.08 83.66,0 180.94,-53.66 223.74,-123.22 36.97,-61.61 38.92,-99.37 38.92,-584.29l0 -520.7 -71.99 17.89c-324.92,73.53 -729.6,57.63 -988.37,-35.78 -322.97,-119.24 -480.56,-276.24 -669.29,-669.75 -159.54,-331.89 -286,-498.83 -486.4,-635.96 -202.34,-141.11 -258.76,-224.58 -178.99,-268.3 120.62,-67.57 357.99,-29.81 542.82,83.47 149.81,91.42 272.39,218.62 406.63,421.33 250.98,381.58 503.91,534.61 881.36,532.62 179,-1.99 299.62,-23.85 472.78,-87.45 93.39,-35.77 110.9,-49.68 110.9,-91.42 0,-67.57 91.44,-339.84 142.03,-423.31 23.34,-37.77 71.99,-103.35 107.01,-143.1 75.87,-85.45 91.44,-75.52 -179,-115.26 -1149.85,-172.91 -1801.63,-773.1 -1976.73,-1822.44 -140.08,-826.76 -15.56,-1411.05 410.52,-1955.59l40.86 -51.68 -38.92 -166.93c-21.4,-91.43 -44.75,-224.58 -52.53,-296.13 -19.46,-216.62 33.07,-576.34 120.63,-812.84l33.07 -87.44 151.76 11.92c268.49,21.87 675.12,188.81 1040.9,429.28l155.64 101.36 202.35 -47.7c657.61,-160.98 1439.74,-160.98 2097.35,0l202.35 47.7 155.64 -103.34c385.23,-250.41 789.92,-413.38 1044.79,-419.34 140.09,-3.98 145.92,-1.99 171.21,51.67 13.62,29.81 48.64,141.1 75.88,248.42 68.1,268.3 70.04,614.1 7.78,866.5l-44.75 176.88 40.86 51.67c348.26,443.19 486.4,888.37 461.11,1468.69 -60.32,1295.77 -624.54,2009.25 -1791.9,2261.65 -118.68,23.84 -272.39,51.67 -346.32,59.62 -71.99,7.95 -130.35,17.88 -130.35,23.84 0,3.98 31.12,45.71 70.04,87.45 38.91,43.72 99.23,145.08 136.19,222.59 116.74,250.41 124.52,323.94 124.52,1263.98 0,904.26 0,904.26 99.23,979.78 93.38,69.56 200.39,65.59 416.35,-15.9 437.76,-164.95 947.51,-457.1 1332.74,-761.17 227.64,-180.85 614.81,-570.38 803.53,-808.87 439.71,-556.47 778.24,-1240.13 949.46,-1913.86 108.96,-431.26 138.14,-667.76 147.87,-1186.47 9.72,-506.78 -9.73,-753.22 -93.39,-1172.56 -262.66,-1297.77 -1058.41,-2476.29 -2167.4,-3215.6 -628.43,-417.35 -1346.36,-683.67 -2091.52,-779.06 -297.68,-37.76 -974.75,-35.77 -1264.65,1.99l0.02 -0.01z"></path> </g> </g> </svg> 