<?xml version="1.0" encoding="UTF-8"?> <!-- Creator: CorelDRAW 2017 --> <svg xmlns="http://www.w3.org/2000/svg" xmlns:xlink="http://www.w3.org/1999/xlink" xml:space="preserve" width="210mm" height="297mm" style="shape-rendering:geometricPrecision; text-rendering:geometricPrecision; image-rendering:optimizeQuality; fill-rule:evenodd; clip-rule:evenodd" viewBox="0 0 21000 29700"> <defs> <style type="text/css"> <![CDATA[ .fil0 {fill:#00995E} ]]> </style> </defs> <g id="Слой_x0020_1"> <metadata id="CorelCorpID_0Corel-Layer"></metadata> <g id="_2556740996320"> <path class="fil0" d="M10523.88 16293.08c-4156.01,0 -7536.96,3381.79 -7536.96,7538.21 0,173.45 140.56,314.21 314.21,314.21l14446.54 0.01c173.66,0 314.21,-140.77 314.21,-314.21 0.01,-4156.43 -3381.57,-7538.22 -7538,-7538.22zm-6901.62 7224c164.86,-3664.79 3197.45,-6595.57 6901.62,-6595.57 3704.59,0 6737.6,2930.78 6902.45,6595.57l-13804.07 0z"></path> <path class="fil0" d="M10398.82 6786.84c-2391.8,0 -4337.84,1945.62 -4337.84,4337 0,2391.8 1946.03,4337.63 4337.84,4337.63 2391.38,0 4337,-1945.83 4337,-4337.63 0,-2391.39 -1945.62,-4337 -4337,-4337zm0 8046.19c-2045.33,0 -3709.41,-1663.87 -3709.41,-3709.2 0,-2044.91 1664.08,-3708.57 3709.41,-3708.57 2044.91,0 3708.57,1663.66 3708.57,3708.57 0,2045.33 -1663.66,3709.2 -3708.57,3709.2z"></path> <path class="fil0" d="M4817.75 13671.7l460.63 0c173.66,0 314.21,-140.77 314.21,-314.21l0.01 -4189.53c0,-105.58 1.89,-129.46 1.89,-208.64 872.04,-1951.48 2647.98,-3247.72 4804.33,-3247.72 2238.67,0 4215.5,1345.47 5036.44,3427.24 1.26,3.14 3.35,5.87 4.61,8.8 -0.42,6.7 -2.09,13.2 -2.09,20.11l0 3932.29c-269.81,686.24 -669.07,1301.27 -1188.36,1827.26 -121.92,123.59 -120.66,322.38 2.93,444.3 61.17,60.54 140.98,90.7 220.79,90.7 81.07,0 162.13,-31.21 223.51,-93.43 491.64,-498.13 886.08,-1068.12 1178.51,-1697.39l336.63 0.01c1328.29,0 2408.98,-1080.48 2408.98,-2408.77 0,-1328.5 -1080.69,-2409.19 -2408.98,-2409.19l-215.97 0c-929.45,-2292.09 -3118.89,-3770.57 -5597.21,-3770.57 -2467.21,0 -4530.34,1500.69 -5467.33,3773.93 0,0 -109.77,-1.26 -131.55,-2.51 -1319.91,9.62 -2390.96,1085.91 -2390.96,2408.34 0.21,1328.5 1080.69,2408.98 2408.98,2408.98zm11248.66 -4189.53l145.59 0c981.82,0 1780.55,798.73 1780.55,1780.76 0,981.82 -798.73,1780.34 -1780.55,1780.34l-145.59 0 0 -3561.1zm-11248.66 0l146.42 0 0 3561.1 -146.42 0c-981.82,0 -1780.34,-798.52 -1780.34,-1780.34 0,-981.82 798.73,-1780.76 1780.34,-1780.76z"></path> </g> </g> </svg> 