<?xml version="1.0" encoding="UTF-8"?> <!-- Creator: CorelDRAW 2017 --> <svg xmlns="http://www.w3.org/2000/svg" xmlns:xlink="http://www.w3.org/1999/xlink" xml:space="preserve" width="150mm" height="150mm" style="shape-rendering:geometricPrecision; text-rendering:geometricPrecision; image-rendering:optimizeQuality; fill-rule:evenodd; clip-rule:evenodd" viewBox="0 0 15000 15000"> <defs> <style type="text/css"> <![CDATA[ .fil0 {fill:#00995E} ]]> </style> </defs> <g id="Слой_x0020_1"> <metadata id="CorelCorpID_0Corel-Layer"></metadata> <g id="_1876678483488"> <path class="fil0" d="M6386.44 2649.53c-2029.27,465.87 -3531.79,2070.57 -3851.3,4123.88 -405.86,2596.84 1329.83,5098.79 3911.74,5625.04 837.6,172.56 1200.29,172.56 2029.27,0 4352.14,-897.25 5431.53,-6591.3 1727.05,-9050.11 -1027.6,-681.55 -2625.11,-974.89 -3816.76,-698.81zm2288.32 2639.97l0 431.37 -328.14 0c-423.13,0 -535.38,120.79 -535.38,578.03l0 370.97 440.4 0 449.02 0 -60.43 267.44c-25.9,146.66 -51.82,327.85 -51.82,388.24 0,86.27 -112.26,120.78 -388.59,120.78l-388.58 0 0 1380.39 0 1380.4 -518.12 0 -518.12 0 0 -1380.4 0 -1380.39 -259.05 0c-250.43,0 -259.04,-17.26 -259.04,-388.23 0,-370.97 8.64,-388.23 250.43,-388.23 241.79,0 250.43,-8.63 302.22,-595.3 95,-931.75 397.23,-1190.57 1416.19,-1207.83l449.01 -8.64 0 431.38 0 0.02z"></path> </g> </g> </svg> 