<?xml version="1.0" encoding="UTF-8"?> <!-- Creator: CorelDRAW 2017 --> <svg xmlns="http://www.w3.org/2000/svg" xmlns:xlink="http://www.w3.org/1999/xlink" xml:space="preserve" width="150mm" height="150mm" style="shape-rendering:geometricPrecision; text-rendering:geometricPrecision; image-rendering:optimizeQuality; fill-rule:evenodd; clip-rule:evenodd" viewBox="0 0 15000 15000"> <defs> <style type="text/css"> <![CDATA[ .fil0 {fill:#00995E} ]]> </style> </defs> <g id="Слой_x0020_1"> <metadata id="CorelCorpID_0Corel-Layer"></metadata> <g id="_1876670542016"> <path class="fil0" d="M6440.47 2757.32c-2703.56,578.08 -4455.52,3388.32 -3779.64,6038.51 337.96,1333.99 1334,2614.62 2490.11,3219.36 1449.61,755.93 3281.61,755.93 4713.42,0 2934.77,-1565.21 3512.82,-5593.84 1129.44,-7950.57 -1182.79,-1173.91 -2899.2,-1663.05 -4553.33,-1307.3zm1689.7 2507.89c0,35.57 -124.51,142.28 -275.69,231.22 -195.65,115.61 -249.02,195.65 -204.55,302.36 35.57,88.93 80.04,337.95 106.71,569.17 35.57,382.4 8.9,444.66 -329.05,809.29 -204.55,213.45 -364.63,426.87 -364.63,480.23 0,44.47 195.65,266.79 435.77,498.04 498.03,462.43 640.31,862.63 453.56,1307.29 -142.28,337.96 -524.7,666.99 -942.67,800.4 -391.3,133.4 -1262.83,62.24 -1627.46,-133.41 -320.15,-160.08 -631.41,-542.48 -631.41,-782.59 0,-471.34 649.21,-1040.51 1342.87,-1165.02 293.48,-53.37 311.25,-80.04 275.68,-320.16 -17.79,-160.08 -88.93,-266.79 -168.97,-266.79 -275.69,0 -738.15,-293.48 -916,-578.07 -364.63,-586.94 -124.51,-1298.42 560.27,-1636.35 311.26,-151.18 542.48,-186.75 1333.99,-186.75 524.71,0 951.58,35.57 951.58,71.14zm1405.13 1591.91l26.67 471.33 489.14 0c417.99,0 480.23,17.8 480.23,177.88 0,160.08 -62.24,177.88 -489.13,177.88l-480.24 0 -26.67 506.9c-26.67,453.57 -53.37,515.81 -222.32,542.48 -195.65,26.67 -204.55,0 -204.55,-506.91l0 -542.47 -489.13 0c-426.87,0 -489.13,-17.8 -489.13,-177.88 0,-160.08 62.24,-177.88 489.13,-177.88l489.13 0 0 -498.03c0,-462.44 8.9,-489.13 204.55,-462.44 168.98,26.68 195.65,88.94 222.32,489.14z"></path> <path class="fil0" d="M5942.44 5772.14c-204.55,311.26 -124.51,960.47 142.28,1245.06 284.58,302.36 506.9,355.72 755.92,186.75 186.75,-124.51 222.32,-222.32 222.32,-551.38 0,-889.33 -738.15,-1467.37 -1120.55,-880.43l0.03 0z"></path> <path class="fil0" d="M5844.6 8653.55c-337.95,213.45 -435.77,471.34 -293.48,809.29 142.28,337.95 506.9,480.23 1120.54,426.87 533.61,-44.47 702.56,-160.08 791.5,-533.61 53.36,-204.54 8.89,-302.35 -249.02,-560.27 -257.92,-257.92 -373.52,-311.26 -693.68,-311.26 -231.22,0 -506.91,71.14 -675.88,168.98l0.02 0z"></path> </g> </g> </svg> 